<svg width="278" height="54" viewBox="0 0 278 54" fill="none" xmlns="http://www.w3.org/2000/svg">
<path d="M61.072 20.272V24.412H69.172V29.776H61.072V34.348H70.252V40H54.016V14.62H70.252V20.272H61.072ZM86.5907 40L81.5507 30.64H80.7947V40H73.7387V14.62H84.8627C86.9027 14.62 88.6307 14.98 90.0467 15.7C91.4627 16.396 92.5307 17.368 93.2507 18.616C93.9707 19.84 94.3307 21.22 94.3307 22.756C94.3307 24.484 93.8507 26.008 92.8907 27.328C91.9547 28.624 90.5747 29.548 88.7507 30.1L94.4747 40H86.5907ZM80.7947 25.816H84.2867C85.2467 25.816 85.9667 25.588 86.4467 25.132C86.9267 24.676 87.1667 24.016 87.1667 23.152C87.1667 22.336 86.9147 21.7 86.4107 21.244C85.9307 20.764 85.2227 20.524 84.2867 20.524H80.7947V25.816ZM117.591 23.08C117.591 24.616 117.231 26.02 116.511 27.292C115.815 28.54 114.747 29.548 113.307 30.316C111.891 31.06 110.151 31.432 108.087 31.432H104.595V40H97.5394V14.62H108.087C110.127 14.62 111.855 14.98 113.271 15.7C114.711 16.42 115.791 17.416 116.511 18.688C117.231 19.96 117.591 21.424 117.591 23.08ZM107.403 25.816C109.395 25.816 110.391 24.904 110.391 23.08C110.391 21.232 109.395 20.308 107.403 20.308H104.595V25.816H107.403ZM139.218 22.18C138.57 20.932 137.67 19.996 136.518 19.372C135.366 18.724 134.034 18.4 132.522 18.4C130.866 18.4 129.39 18.772 128.094 19.516C126.798 20.26 125.778 21.316 125.034 22.684C124.314 24.052 123.954 25.636 123.954 27.436C123.954 29.236 124.314 30.832 125.034 32.224C125.778 33.592 126.798 34.648 128.094 35.392C129.39 36.136 130.866 36.508 132.522 36.508C134.754 36.508 136.566 35.884 137.958 34.636C139.35 33.388 140.202 31.696 140.514 29.56H131.118V26.284H144.906V29.488C144.642 31.432 143.946 33.22 142.818 34.852C141.714 36.484 140.262 37.792 138.462 38.776C136.686 39.736 134.706 40.216 132.522 40.216C130.17 40.216 128.022 39.676 126.078 38.596C124.134 37.492 122.586 35.968 121.434 34.024C120.306 32.08 119.742 29.884 119.742 27.436C119.742 24.988 120.306 22.792 121.434 20.848C122.586 18.904 124.134 17.392 126.078 16.312C128.046 15.208 130.194 14.656 132.522 14.656C135.186 14.656 137.55 15.316 139.614 16.636C141.702 17.932 143.214 19.78 144.15 22.18H139.218ZM153.058 23.044C153.658 22.036 154.45 21.256 155.434 20.704C156.442 20.128 157.63 19.84 158.998 19.84V24.088H157.954C156.346 24.088 155.122 24.496 154.282 25.312C153.466 26.128 153.058 27.544 153.058 29.56V40H148.954V20.164H153.058V23.044ZM180.734 20.164V40H176.63V37.66C175.982 38.476 175.13 39.124 174.074 39.604C173.042 40.06 171.938 40.288 170.762 40.288C169.202 40.288 167.798 39.964 166.55 39.316C165.326 38.668 164.354 37.708 163.634 36.436C162.938 35.164 162.59 33.628 162.59 31.828V20.164H166.658V31.216C166.658 32.992 167.102 34.36 167.99 35.32C168.878 36.256 170.09 36.724 171.626 36.724C173.162 36.724 174.374 36.256 175.262 35.32C176.174 34.36 176.63 32.992 176.63 31.216V20.164H180.734ZM190.253 23.08C190.949 22.168 191.897 21.4 193.097 20.776C194.297 20.152 195.653 19.84 197.165 19.84C198.893 19.84 200.465 20.272 201.881 21.136C203.321 21.976 204.449 23.164 205.265 24.7C206.081 26.236 206.489 28 206.489 29.992C206.489 31.984 206.081 33.772 205.265 35.356C204.449 36.916 203.321 38.14 201.881 39.028C200.465 39.892 198.893 40.324 197.165 40.324C195.653 40.324 194.309 40.024 193.133 39.424C191.957 38.8 190.997 38.032 190.253 37.12V49.432H186.149V20.164H190.253V23.08ZM202.313 29.992C202.313 28.624 202.025 27.448 201.449 26.464C200.897 25.456 200.153 24.7 199.217 24.196C198.305 23.668 197.321 23.404 196.265 23.404C195.233 23.404 194.249 23.668 193.313 24.196C192.401 24.724 191.657 25.492 191.081 26.5C190.529 27.508 190.253 28.696 190.253 30.064C190.253 31.432 190.529 32.632 191.081 33.664C191.657 34.672 192.401 35.44 193.313 35.968C194.249 36.496 195.233 36.76 196.265 36.76C197.321 36.76 198.305 36.496 199.217 35.968C200.153 35.416 200.897 34.624 201.449 33.592C202.025 32.56 202.313 31.36 202.313 29.992ZM214.652 23.08C215.348 22.168 216.296 21.4 217.496 20.776C218.696 20.152 220.052 19.84 221.564 19.84C223.292 19.84 224.864 20.272 226.28 21.136C227.72 21.976 228.848 23.164 229.664 24.7C230.48 26.236 230.888 28 230.888 29.992C230.888 31.984 230.48 33.772 229.664 35.356C228.848 36.916 227.72 38.14 226.28 39.028C224.864 39.892 223.292 40.324 221.564 40.324C220.052 40.324 218.708 40.024 217.532 39.424C216.356 38.8 215.396 38.032 214.652 37.12V49.432H210.548V20.164H214.652V23.08ZM226.712 29.992C226.712 28.624 226.424 27.448 225.848 26.464C225.296 25.456 224.552 24.7 223.616 24.196C222.704 23.668 221.72 23.404 220.664 23.404C219.632 23.404 218.648 23.668 217.712 24.196C216.8 24.724 216.056 25.492 215.48 26.5C214.928 27.508 214.652 28.696 214.652 30.064C214.652 31.432 214.928 32.632 215.48 33.664C216.056 34.672 216.8 35.44 217.712 35.968C218.648 36.496 219.632 36.76 220.664 36.76C221.72 36.76 222.704 36.496 223.616 35.968C224.552 35.416 225.296 34.624 225.848 33.592C226.424 32.56 226.712 31.36 226.712 29.992ZM253.126 29.596C253.126 30.34 253.078 31.012 252.982 31.612H237.826C237.946 33.196 238.534 34.468 239.59 35.428C240.646 36.388 241.942 36.868 243.478 36.868C245.686 36.868 247.246 35.944 248.158 34.096H252.586C251.986 35.92 250.894 37.42 249.31 38.596C247.75 39.748 245.806 40.324 243.478 40.324C241.582 40.324 239.878 39.904 238.366 39.064C236.878 38.2 235.702 37 234.838 35.464C233.998 33.904 233.578 32.104 233.578 30.064C233.578 28.024 233.986 26.236 234.802 24.7C235.642 23.14 236.806 21.94 238.294 21.1C239.806 20.26 241.534 19.84 243.478 19.84C245.35 19.84 247.018 20.248 248.482 21.064C249.946 21.88 251.086 23.032 251.902 24.52C252.718 25.984 253.126 27.676 253.126 29.596ZM248.842 28.3C248.818 26.788 248.278 25.576 247.222 24.664C246.166 23.752 244.858 23.296 243.298 23.296C241.882 23.296 240.67 23.752 239.662 24.664C238.654 25.552 238.054 26.764 237.862 28.3H248.842ZM267.173 19.84C268.733 19.84 270.125 20.164 271.349 20.812C272.597 21.46 273.569 22.42 274.265 23.692C274.961 24.964 275.309 26.5 275.309 28.3V40H271.241V28.912C271.241 27.136 270.797 25.78 269.909 24.844C269.021 23.884 267.809 23.404 266.273 23.404C264.737 23.404 263.513 23.884 262.601 24.844C261.713 25.78 261.269 27.136 261.269 28.912V40H257.165V20.164H261.269V22.432C261.941 21.616 262.793 20.98 263.825 20.524C264.881 20.068 265.997 19.84 267.173 19.84Z" fill="black"/>
<path d="M39 34.2019C39 40.7178 33.4163 46 26.9205 46C20.4248 46 15 40.7178 15 34.2019C15 22.8821 20.4248 33.5641 26.9205 33.5641C33.4163 33.5641 39 22.8821 39 34.2019Z" fill="black"/>
<path d="M24 18.1041C24 11.9715 18.4163 7 11.9205 7C5.42478 7 0 11.9715 0 18.1041C0 28.7581 5.42478 18.7044 11.9205 18.7044C18.4163 18.7044 24 28.7581 24 18.1041Z" fill="black"/>
<path d="M27.8959 7C34.0285 7 39 12.5837 39 19.0795C39 25.5752 34.0285 31 27.8959 31C17.2419 31 27.2956 25.5752 27.2956 19.0795C27.2956 12.5837 17.2419 7 27.8959 7Z" fill="black"/>
<path d="M11.1041 22C4.97149 22 0 27.5837 0 34.0795C0 40.5752 4.97149 46 11.1041 46C21.7581 46 11.7044 40.5752 11.7044 34.0795C11.7044 27.5837 21.7581 22 11.1041 22Z" fill="black"/>
</svg>
