<svg width="346" height="54" viewBox="0 0 346 54" fill="none" xmlns="http://www.w3.org/2000/svg">
<path d="M59.072 20.272V24.412H67.172V29.776H59.072V34.348H68.252V40H52.016V14.62H68.252V20.272H59.072ZM84.5907 40L79.5507 30.64H78.7947V40H71.7387V14.62H82.8627C84.9027 14.62 86.6307 14.98 88.0467 15.7C89.4627 16.396 90.5307 17.368 91.2507 18.616C91.9707 19.84 92.3307 21.22 92.3307 22.756C92.3307 24.484 91.8507 26.008 90.8907 27.328C89.9547 28.624 88.5747 29.548 86.7507 30.1L92.4747 40H84.5907ZM78.7947 25.816H82.2867C83.2467 25.816 83.9667 25.588 84.4467 25.132C84.9267 24.676 85.1667 24.016 85.1667 23.152C85.1667 22.336 84.9147 21.7 84.4107 21.244C83.9307 20.764 83.2227 20.524 82.2867 20.524H78.7947V25.816ZM115.591 23.08C115.591 24.616 115.231 26.02 114.511 27.292C113.815 28.54 112.747 29.548 111.307 30.316C109.891 31.06 108.151 31.432 106.087 31.432H102.595V40H95.5394V14.62H106.087C108.127 14.62 109.855 14.98 111.271 15.7C112.711 16.42 113.791 17.416 114.511 18.688C115.231 19.96 115.591 21.424 115.591 23.08ZM105.403 25.816C107.395 25.816 108.391 24.904 108.391 23.08C108.391 21.232 107.395 20.308 105.403 20.308H102.595V25.816H105.403ZM136.606 22.432C136.606 23.704 136.306 24.904 135.706 26.032C135.106 27.16 134.146 28.084 132.826 28.804C131.506 29.5 129.814 29.848 127.75 29.848H123.214V40H119.11V14.98H127.75C129.67 14.98 131.29 15.316 132.61 15.988C133.954 16.636 134.95 17.524 135.598 18.652C136.27 19.78 136.606 21.04 136.606 22.432ZM127.75 26.5C129.31 26.5 130.474 26.152 131.242 25.456C132.01 24.736 132.394 23.728 132.394 22.432C132.394 19.696 130.846 18.328 127.75 18.328H123.214V26.5H127.75ZM153.516 40L147.756 29.992H144.624V40H140.52V14.98H149.16C151.08 14.98 152.7 15.316 154.02 15.988C155.364 16.66 156.36 17.56 157.008 18.688C157.68 19.816 158.016 21.076 158.016 22.468C158.016 24.1 157.536 25.588 156.576 26.932C155.64 28.252 154.188 29.152 152.22 29.632L158.412 40H153.516ZM144.624 26.716H149.16C150.696 26.716 151.848 26.332 152.616 25.564C153.408 24.796 153.804 23.764 153.804 22.468C153.804 21.172 153.42 20.164 152.652 19.444C151.884 18.7 150.72 18.328 149.16 18.328H144.624V26.716ZM174.678 40.252C172.35 40.252 170.202 39.712 168.234 38.632C166.29 37.528 164.742 36.004 163.59 34.06C162.462 32.092 161.898 29.884 161.898 27.436C161.898 24.988 162.462 22.792 163.59 20.848C164.742 18.904 166.29 17.392 168.234 16.312C170.202 15.208 172.35 14.656 174.678 14.656C177.03 14.656 179.178 15.208 181.122 16.312C183.09 17.392 184.638 18.904 185.766 20.848C186.894 22.792 187.458 24.988 187.458 27.436C187.458 29.884 186.894 32.092 185.766 34.06C184.638 36.004 183.09 37.528 181.122 38.632C179.178 39.712 177.03 40.252 174.678 40.252ZM174.678 36.688C176.334 36.688 177.81 36.316 179.106 35.572C180.402 34.804 181.41 33.724 182.13 32.332C182.874 30.916 183.246 29.284 183.246 27.436C183.246 25.588 182.874 23.968 182.13 22.576C181.41 21.184 180.402 20.116 179.106 19.372C177.81 18.628 176.334 18.256 174.678 18.256C173.022 18.256 171.546 18.628 170.25 19.372C168.954 20.116 167.934 21.184 167.19 22.576C166.47 23.968 166.11 25.588 166.11 27.436C166.11 29.284 166.47 30.916 167.19 32.332C167.934 33.724 168.954 34.804 170.25 35.572C171.546 36.316 173.022 36.688 174.678 36.688ZM199.669 14.98C202.333 14.98 204.661 15.496 206.653 16.528C208.669 17.536 210.217 19 211.297 20.92C212.401 22.816 212.953 25.036 212.953 27.58C212.953 30.124 212.401 32.332 211.297 34.204C210.217 36.076 208.669 37.516 206.653 38.524C204.661 39.508 202.333 40 199.669 40H191.497V14.98H199.669ZM199.669 36.652C202.597 36.652 204.841 35.86 206.401 34.276C207.961 32.692 208.741 30.46 208.741 27.58C208.741 24.676 207.961 22.408 206.401 20.776C204.841 19.144 202.597 18.328 199.669 18.328H195.601V36.652H199.669ZM221.088 14.98V30.928C221.088 32.824 221.58 34.252 222.564 35.212C223.572 36.172 224.964 36.652 226.74 36.652C228.54 36.652 229.932 36.172 230.916 35.212C231.924 34.252 232.428 32.824 232.428 30.928V14.98H236.532V30.856C236.532 32.896 236.088 34.624 235.2 36.04C234.312 37.456 233.124 38.512 231.636 39.208C230.148 39.904 228.504 40.252 226.704 40.252C224.904 40.252 223.26 39.904 221.772 39.208C220.308 38.512 219.144 37.456 218.28 36.04C217.416 34.624 216.984 32.896 216.984 30.856V14.98H221.088ZM255.664 40L245.98 28.804V40H241.876V14.98H245.98V26.392L255.7 14.98H260.848L249.976 27.508L261.028 40H255.664ZM280.821 14.98V18.328H274.161V40H270.057V18.328H263.361V14.98H280.821ZM289.081 14.98V40H284.977V14.98H289.081ZM305.882 40.252C303.554 40.252 301.406 39.712 299.438 38.632C297.494 37.528 295.946 36.004 294.794 34.06C293.666 32.092 293.102 29.884 293.102 27.436C293.102 24.988 293.666 22.792 294.794 20.848C295.946 18.904 297.494 17.392 299.438 16.312C301.406 15.208 303.554 14.656 305.882 14.656C308.234 14.656 310.382 15.208 312.326 16.312C314.294 17.392 315.842 18.904 316.97 20.848C318.098 22.792 318.662 24.988 318.662 27.436C318.662 29.884 318.098 32.092 316.97 34.06C315.842 36.004 314.294 37.528 312.326 38.632C310.382 39.712 308.234 40.252 305.882 40.252ZM305.882 36.688C307.538 36.688 309.014 36.316 310.31 35.572C311.606 34.804 312.614 33.724 313.334 32.332C314.078 30.916 314.45 29.284 314.45 27.436C314.45 25.588 314.078 23.968 313.334 22.576C312.614 21.184 311.606 20.116 310.31 19.372C309.014 18.628 307.538 18.256 305.882 18.256C304.226 18.256 302.75 18.628 301.454 19.372C300.158 20.116 299.138 21.184 298.394 22.576C297.674 23.968 297.314 25.588 297.314 27.436C297.314 29.284 297.674 30.916 298.394 32.332C299.138 33.724 300.158 34.804 301.454 35.572C302.75 36.316 304.226 36.688 305.882 36.688ZM343.256 40H339.152L326.804 21.316V40H322.7V14.944H326.804L339.152 33.592V14.944H343.256V40Z" fill="black"/>
<path d="M39 34.2019C39 40.7178 33.4163 46 26.9205 46C20.4248 46 15 40.7178 15 34.2019C15 22.8821 20.4248 33.5641 26.9205 33.5641C33.4163 33.5641 39 22.8821 39 34.2019Z" fill="black"/>
<path d="M24 18.1041C24 11.9715 18.4163 7 11.9205 7C5.42478 7 0 11.9715 0 18.1041C0 28.7581 5.42478 18.7044 11.9205 18.7044C18.4163 18.7044 24 28.7581 24 18.1041Z" fill="black"/>
<path d="M27.8959 7C34.0285 7 39 12.5837 39 19.0795C39 25.5752 34.0285 31 27.8959 31C17.2419 31 27.2956 25.5752 27.2956 19.0795C27.2956 12.5837 17.2419 7 27.8959 7Z" fill="black"/>
<path d="M11.1041 22C4.97149 22 0 27.5837 0 34.0795C0 40.5752 4.97149 46 11.1041 46C21.7581 46 11.7044 40.5752 11.7044 34.0795C11.7044 27.5837 21.7581 22 11.1041 22Z" fill="black"/>
</svg>
