<svg width="31" height="31" viewBox="0 0 31 31" fill="none" xmlns="http://www.w3.org/2000/svg">
<path d="M28.1757 0H2.6168C1.22021 0 0 1.00488 0 2.38506V28.0007C0 29.3884 1.22021 30.625 2.6168 30.625H28.1682C29.5723 30.625 30.625 29.3802 30.625 28.0007V2.38506C30.6332 1.00488 29.5723 0 28.1757 0ZM9.49307 25.5274H5.10576V11.8863H9.49307V25.5274ZM7.45117 9.8123H7.41973C6.01562 9.8123 5.10645 8.76709 5.10645 7.45869C5.10645 6.12637 6.03955 5.10576 7.4751 5.10576C8.91064 5.10576 9.78906 6.11885 9.82051 7.45869C9.81982 8.76709 8.91064 9.8123 7.45117 9.8123ZM25.5274 25.5274H21.1401V18.0688C21.1401 16.2818 20.5017 15.0609 18.9144 15.0609C17.7017 15.0609 16.9839 15.8813 16.6646 16.6804C16.545 16.9675 16.5129 17.3585 16.5129 17.7577V25.5274H12.1256V11.8863H16.5129V13.7847C17.1514 12.8755 18.1487 11.5671 20.4695 11.5671C23.3495 11.5671 25.5281 13.4654 25.5281 17.5581L25.5274 25.5274Z" fill="white"/>
</svg>
