<svg width="38" height="30" viewBox="0 0 38 30" fill="none" xmlns="http://www.w3.org/2000/svg">
<path d="M38 3.55469C36.5746 4.1659 35.0664 4.56858 33.5231 4.75C35.145 3.8128 36.3647 2.32389 36.9534 0.562511C35.42 1.44735 33.7452 2.06819 32.0008 2.39844C31.2662 1.6387 30.3827 1.03431 29.404 0.622C28.4254 0.209689 27.372 -0.00192759 26.3079 1.323e-05C21.9996 1.323e-05 18.5131 3.39063 18.5131 7.5703C18.5101 8.15168 18.5776 8.73133 18.7142 9.29686C15.6249 9.15394 12.5998 8.37622 9.83249 7.01347C7.06518 5.65072 4.61659 3.73294 2.64337 1.38282C1.95112 2.53447 1.58502 3.84847 1.58333 5.1875C1.58333 7.81249 2.97113 10.1328 5.06667 11.4922C3.82512 11.4631 2.60901 11.1388 1.52158 10.5469V10.6406C1.52158 14.3125 4.21325 17.3671 7.77575 18.0625C7.10583 18.2387 6.41548 18.328 5.72217 18.3281C5.23021 18.3289 4.73937 18.2818 4.25679 18.1875C5.24717 21.1953 8.12963 23.3828 11.5441 23.4453C8.76959 25.5553 5.36324 26.6958 1.86042 26.6874C1.23866 26.6865 0.617473 26.65 0 26.5781C3.56343 28.8235 7.70564 30.0113 11.9336 29.9999C26.2913 29.9999 34.1351 18.4609 34.1351 8.45311C34.1351 8.12499 34.1264 7.79686 34.1105 7.47655C35.633 6.40785 36.9501 5.07977 38 3.55469Z" fill="white"/>
</svg>
